<?xml version="1.0" encoding="UTF-8"?>
<!DOCTYPE svg PUBLIC "-//W3C//DTD SVG 1.1//EN" "http://www.w3.org/Graphics/SVG/1.1/DTD/svg11.dtd">
<svg xmlns="http://www.w3.org/2000/svg" version="1.1" width="583px" height="424px" style="shape-rendering:geometricPrecision; text-rendering:geometricPrecision; image-rendering:optimizeQuality; fill-rule:evenodd; clip-rule:evenodd" xmlns:xlink="http://www.w3.org/1999/xlink">
<g><path style="opacity:0.903" fill="#7c7d7c" d="M 275.5,10.5 C 286.167,10.5 296.833,10.5 307.5,10.5C 307.5,14.5 307.5,18.5 307.5,22.5C 304.167,22.5 300.833,22.5 297.5,22.5C 297.5,21.1667 297.5,19.8333 297.5,18.5C 295.167,18.5 292.833,18.5 290.5,18.5C 290.5,20.8333 290.5,23.1667 290.5,25.5C 293.833,25.5 297.167,25.5 300.5,25.5C 300.5,28.1667 300.5,30.8333 300.5,33.5C 297.5,33.5 294.5,33.5 291.5,33.5C 291.5,35.5 291.5,37.5 291.5,39.5C 293.144,39.7135 294.644,39.3802 296,38.5C 296.497,41.146 296.664,43.8127 296.5,46.5C 289.82,46.6123 283.153,46.9457 276.5,47.5C 276.5,44.8333 276.5,42.1667 276.5,39.5C 277.5,39.5 278.5,39.5 279.5,39.5C 279.5,32.5 279.5,25.5 279.5,18.5C 278.167,18.5 276.833,18.5 275.5,18.5C 275.5,15.8333 275.5,13.1667 275.5,10.5 Z"/></g>
<g><path style="opacity:0.902" fill="#7c7d7c" d="M 368.5,36.5 C 370.127,38.6298 371.96,40.6298 374,42.5C 377.195,49.9403 375.029,55.1069 367.5,58C 360.366,59.2606 354.532,57.094 350,51.5C 349.311,52.3567 348.478,53.0233 347.5,53.5C 344.336,52.683 341.503,51.3496 339,49.5C 338.107,50.0814 337.107,50.4148 336,50.5C 326.508,49.0429 317.008,47.7095 307.5,46.5C 307.539,43.6786 308.205,41.0119 309.5,38.5C 311.102,39.55 311.935,38.8833 312,36.5C 312.882,30.4963 313.715,24.4963 314.5,18.5C 313.5,18.5 312.5,18.5 311.5,18.5C 311.575,15.7938 311.908,13.1272 312.5,10.5C 322.845,11.7515 333.179,13.0848 343.5,14.5C 342.979,18.4809 342.646,22.4809 342.5,26.5C 339.14,26.3841 335.807,26.0508 332.5,25.5C 332.5,23.8333 332.5,22.1667 332.5,20.5C 330.167,20.5 327.833,20.5 325.5,20.5C 325.261,22.4672 325.594,24.3005 326.5,26C 333.32,24.7281 335.654,27.2281 333.5,33.5C 330.249,34.2196 327.083,34.5529 324,34.5C 322.508,40.1608 324.675,42.4942 330.5,41.5C 330.5,40.1667 330.5,38.8333 330.5,37.5C 333.579,37.2601 336.579,37.5934 339.5,38.5C 340.031,41.0985 340.198,43.7652 340,46.5C 341.145,43.5682 341.978,40.5682 342.5,37.5C 345.568,38.0218 348.568,38.8551 351.5,40C 352.408,43.2435 354.408,45.5768 357.5,47C 359.074,47.6987 360.407,47.3654 361.5,46C 357.756,43.0447 353.922,40.2114 350,37.5C 345.002,31.1688 345.502,25.3355 351.5,20C 359.567,16.6755 366.067,18.5088 371,25.5C 371.674,24.4216 372.674,23.7549 374,23.5C 377.014,23.7193 379.514,24.886 381.5,27C 380.106,30.7448 379.106,34.5782 378.5,38.5C 375.123,38.0405 371.789,37.3739 368.5,36.5 Z M 368.5,36.5 C 366.405,35.588 364.405,34.4213 362.5,33C 359.713,31.0934 359.88,29.5934 363,28.5C 367.049,29.5862 368.882,32.2529 368.5,36.5 Z"/></g>
<g><path style="opacity:0.901" fill="#7c7d7c" d="M 192.5,68.5 C 193.014,70.3664 193.68,72.1997 194.5,74C 191.032,76.5719 187.365,78.9053 183.5,81C 175.907,88.5996 167.74,95.433 159,101.5C 157.056,100.561 155.389,99.2273 154,97.5C 153.493,96.0039 153.993,94.8373 155.5,94C 151.048,88.9259 146.714,83.7592 142.5,78.5C 141.109,79.6446 139.776,79.6446 138.5,78.5C 137.5,77.1667 136.5,75.8333 135.5,74.5C 143.091,67.3672 151.091,60.7006 159.5,54.5C 162.273,57.1961 164.94,60.0294 167.5,63C 165.268,65.7349 162.601,67.9016 159.5,69.5C 158.667,68.5 157.833,67.5 157,66.5C 155.075,67.8804 153.241,69.3804 151.5,71C 152.685,72.353 154.019,73.5197 155.5,74.5C 157.657,72.5879 159.991,70.9213 162.5,69.5C 164.692,70.8587 166.359,72.6921 167.5,75C 165.461,77.3745 163.128,79.3745 160.5,81C 161.622,83.1238 163.122,84.9571 165,86.5C 166.351,84.981 167.851,83.6477 169.5,82.5C 167.979,80.7143 167.646,78.881 168.5,77C 170.641,75.6924 172.641,74.1924 174.5,72.5C 176.197,73.3636 177.363,74.6969 178,76.5C 178.465,75.0692 179.299,73.9025 180.5,73C 177.872,68.2451 175.372,63.4118 173,58.5C 171.648,56.5676 169.815,55.2343 167.5,54.5C 165.844,52.5878 165.511,50.5878 166.5,48.5C 171.92,45.373 177.42,42.373 183,39.5C 186.298,43.7998 189.965,47.7998 194,51.5C 193.554,46.2138 192.388,41.0471 190.5,36C 195.577,32.5995 200.911,29.5995 206.5,27C 207.635,26.2506 208.635,26.4173 209.5,27.5C 210.128,29.2581 211.128,30.7581 212.5,32C 211.643,32.6891 210.977,33.5224 210.5,34.5C 213.333,40.1667 216.167,45.8333 219,51.5C 220.268,51.6158 221.602,51.9491 223,52.5C 223.689,51.6433 224.522,50.9767 225.5,50.5C 228.725,40.7766 228.058,31.4432 223.5,22.5C 229.843,19.4147 236.51,17.5813 243.5,17C 248.458,24.415 253.291,31.915 258,39.5C 259.194,41.5254 260.694,41.8587 262.5,40.5C 263.473,42.3921 264.14,44.3921 264.5,46.5C 264.182,47.6473 263.516,48.4806 262.5,49C 256.943,50.297 251.443,51.797 246,53.5C 245.228,53.3552 244.561,53.0219 244,52.5C 243.654,50.7818 243.154,49.1151 242.5,47.5C 243.381,46.0295 244.714,45.1962 246.5,45C 245.892,44.1301 245.059,43.6301 244,43.5C 241.251,43.974 238.751,44.974 236.5,46.5C 237.689,47.4287 239.022,47.762 240.5,47.5C 241.136,50.1062 241.136,52.6062 240.5,55C 235.167,56.3333 229.833,57.6667 224.5,59C 220.266,61.4091 215.933,63.5758 211.5,65.5C 209.331,64.3477 207.997,62.5144 207.5,60C 207.905,59.0546 208.572,58.3879 209.5,58C 207.539,54.5788 205.706,51.0788 204,47.5C 204.766,53.6696 205.933,59.8362 207.5,66C 205.297,69.1169 202.297,71.2835 198.5,72.5C 196.235,71.5684 194.235,70.2351 192.5,68.5 Z M 236.5,29.5 C 238.873,31.5792 240.206,34.2459 240.5,37.5C 239.167,37.5 237.833,37.5 236.5,37.5C 236.5,34.8333 236.5,32.1667 236.5,29.5 Z M 184.5,59.5 C 187.392,62.271 190.058,65.271 192.5,68.5C 187.833,67.4897 185.166,64.4897 184.5,59.5 Z"/></g>
<g><path style="opacity:0.883" fill="#7c7d7c" d="M 387.5,28.5 C 398.267,33.383 408.934,38.5497 419.5,44C 417.366,48.4441 414.866,52.6108 412,56.5C 409.395,55.7854 407.228,54.4521 405.5,52.5C 406.747,50.677 407.414,48.677 407.5,46.5C 406.325,46.281 405.325,46.6143 404.5,47.5C 401.833,52.8333 399.167,58.1667 396.5,63.5C 397.263,64.7193 398.263,65.7193 399.5,66.5C 398.333,68.8333 397.167,71.1667 396,73.5C 389.887,70.5307 384.054,67.1974 378.5,63.5C 379.333,61.8333 380.167,60.1667 381,58.5C 382.667,58.1667 384.333,57.8333 386,57.5C 388.579,52.0082 391.412,46.6748 394.5,41.5C 394.167,40.5 393.5,39.8333 392.5,39.5C 391.396,41.3885 390.063,43.0552 388.5,44.5C 386.004,43.4196 383.67,42.0862 381.5,40.5C 383.513,36.4734 385.513,32.4734 387.5,28.5 Z"/></g>
<g><path style="opacity:0.887" fill="#7c7d7c" d="M 422.5,47.5 C 427.959,50.0685 432.959,53.4018 437.5,57.5C 436.289,59.4219 434.956,61.2552 433.5,63C 431.209,62.1894 429.375,63.0228 428,65.5C 425.202,70.2628 422.036,74.7628 418.5,79C 419.428,79.3879 420.095,80.0546 420.5,81C 419.722,83.3899 418.555,85.5566 417,87.5C 411.679,84.4288 406.846,80.7621 402.5,76.5C 403.423,74.0758 404.923,72.0758 407,70.5C 407.667,71.1667 408.333,71.8333 409,72.5C 412.833,66.8333 416.667,61.1667 420.5,55.5C 419.833,54.8333 419.167,54.1667 418.5,53.5C 419.844,51.4714 421.177,49.4714 422.5,47.5 Z"/></g>
<g><path style="opacity:0.9" fill="#7c7d7c" d="M 439.5,59.5 C 440.552,59.3505 441.552,59.5172 442.5,60C 446.708,64.3763 451.041,68.543 455.5,72.5C 453.822,75.8611 451.155,77.5278 447.5,77.5C 446.202,81.5504 445.035,85.5504 444,89.5C 447.545,87.9778 451.045,86.3112 454.5,84.5C 455.006,81.3952 456.84,78.7285 460,76.5C 463.035,79.8702 466.368,82.8702 470,85.5C 470.06,88.6478 468.56,90.9812 465.5,92.5C 464.232,91.5721 462.899,91.4054 461.5,92C 453.059,95.9705 444.559,99.8038 436,103.5C 433.384,101.888 431.05,99.8878 429,97.5C 431.09,87.3836 433.923,77.3836 437.5,67.5C 437.32,66.4461 436.987,65.4461 436.5,64.5C 437.763,62.9713 438.763,61.3046 439.5,59.5 Z"/></g>
<g><path style="opacity:0.899" fill="#7c7d7c" d="M 117.5,145.5 C 117.33,144.178 117.663,143.011 118.5,142C 112.752,138.042 106.919,134.209 101,130.5C 100.481,131.516 99.6473,132.182 98.5,132.5C 96.3736,131.602 94.3736,130.435 92.5,129C 95.3045,123.549 98.8045,118.716 103,114.5C 104.657,115.484 106.323,116.484 108,117.5C 107.737,118.951 107.904,120.284 108.5,121.5C 113.752,124.709 118.918,128.042 124,131.5C 125.171,130.107 126.671,129.273 128.5,129C 126.043,127.846 126.043,126.512 128.5,125C 123.023,121.024 117.69,116.858 112.5,112.5C 109.454,112.825 106.787,111.659 104.5,109C 107.5,105.333 110.5,101.667 113.5,98C 120.558,97.8977 127.558,98.231 134.5,99C 132.241,97.2854 130.074,95.4521 128,93.5C 127.311,94.3567 126.478,95.0233 125.5,95.5C 123.354,94.4441 121.688,92.9441 120.5,91C 123.28,86.3871 126.613,82.2204 130.5,78.5C 134.154,80.2435 135.654,82.9102 135,86.5C 141.968,92.3921 148.801,98.3921 155.5,104.5C 153.486,108.345 150.653,111.345 147,113.5C 140.862,112.336 134.695,111.836 128.5,112C 130.373,114.209 132.54,116.042 135,117.5C 138.495,114.664 140.995,115.497 142.5,120C 140.031,123.757 137.198,127.257 134,130.5C 130.848,136.801 127.182,142.801 123,148.5C 121.512,146.84 119.679,145.84 117.5,145.5 Z"/></g>
<g><path style="opacity:0.815" fill="#737474" d="M 215.5,88.5 C 211.5,89.8333 207.5,89.8333 203.5,88.5C 203.5,86.8333 203.5,85.1667 203.5,83.5C 207.5,83.5 211.5,83.5 215.5,83.5C 215.5,85.1667 215.5,86.8333 215.5,88.5 Z"/></g>
<g><path style="opacity:0.797" fill="#737373" d="M 389.5,88.5 C 385.5,89.8333 381.5,89.8333 377.5,88.5C 377.5,86.8333 377.5,85.1667 377.5,83.5C 381.5,83.5 385.5,83.5 389.5,83.5C 389.5,85.1667 389.5,86.8333 389.5,88.5 Z"/></g>
<g><path style="opacity:0.989" fill="#000000" d="M 203.5,88.5 C 207.5,89.8333 211.5,89.8333 215.5,88.5C 269.5,88.5 323.5,88.5 377.5,88.5C 381.5,89.8333 385.5,89.8333 389.5,88.5C 390.5,88.5 391.5,88.5 392.5,88.5C 392.5,112.167 392.5,135.833 392.5,159.5C 391.5,159.5 390.5,159.5 389.5,159.5C 385.5,159.5 381.5,159.5 377.5,159.5C 323.5,159.5 269.5,159.5 215.5,159.5C 211.5,159.5 207.5,159.5 203.5,159.5C 202.5,159.5 201.5,159.5 200.5,159.5C 200.5,135.833 200.5,112.167 200.5,88.5C 201.5,88.5 202.5,88.5 203.5,88.5 Z"/></g>
<g><path style="opacity:0.897" fill="#7c7d7c" d="M 477.5,97.5 C 479.017,97.5106 480.184,98.1772 481,99.5C 484.575,104.073 487.742,108.907 490.5,114C 485.372,121.749 479.872,129.249 474,136.5C 473.571,138.669 474.071,140.669 475.5,142.5C 476.365,143.583 477.365,143.749 478.5,143C 483.38,140.393 488.38,138.06 493.5,136C 494.484,132.488 496.817,130.322 500.5,129.5C 503.294,134.253 505.96,139.086 508.5,144C 506.557,145.555 504.39,146.722 502,147.5C 501.055,147.095 500.388,146.428 500,145.5C 493.912,148.794 487.745,151.961 481.5,155C 482.46,156.419 483.293,157.919 484,159.5C 485.993,157.622 488.159,157.288 490.5,158.5C 491.5,160.5 492.5,162.5 493.5,164.5C 489.864,167.323 485.864,169.656 481.5,171.5C 476.473,162.779 471.973,153.779 468,144.5C 463.973,139.306 460.14,133.973 456.5,128.5C 459.198,123.89 462.198,123.224 465.5,126.5C 466.521,125.998 466.688,125.332 466,124.5C 464.333,122.167 462.667,119.833 461,117.5C 460.5,118 460,118.5 459.5,119C 460.517,120.049 460.684,121.216 460,122.5C 458.323,123.516 456.657,124.516 455,125.5C 451.143,121.306 447.643,116.806 444.5,112C 446.641,110.692 448.641,109.192 450.5,107.5C 451.799,108.09 452.632,109.09 453,110.5C 459.075,108.141 465.241,105.975 471.5,104C 473.376,101.677 475.376,99.51 477.5,97.5 Z M 474.5,112.5 C 475.525,112.897 475.692,113.563 475,114.5C 473.647,115.685 472.48,117.019 471.5,118.5C 469.51,117.537 469.177,116.204 470.5,114.5C 472.026,114.006 473.359,113.339 474.5,112.5 Z"/></g>
<g><path style="opacity:0.904" fill="#7c7d7c" d="M 117.5,145.5 C 121.566,157.42 118.233,166.587 107.5,173C 98.7099,175.068 91.2099,172.901 85,166.5C 78.8476,158.702 79.1809,151.369 86,144.5C 86.5576,141.066 87.391,137.733 88.5,134.5C 93.8206,135.659 98.8206,137.659 103.5,140.5C 102.527,143.779 101.027,146.779 99,149.5C 92.3333,147.833 90.3333,150.167 93,156.5C 96.9526,160.383 101.453,161.55 106.5,160C 110.153,156.551 110.486,152.717 107.5,148.5C 110.593,146.691 113.926,145.691 117.5,145.5 Z"/></g>
<g><path style="opacity:0.948" fill="#7c7d7c" d="M 203.5,159.5 C 207.5,159.5 211.5,159.5 215.5,159.5C 215.5,170.167 215.5,180.833 215.5,191.5C 219.56,192.055 222.727,194.055 225,197.5C 226.29,201.73 226.79,206.064 226.5,210.5C 222.833,210.5 219.167,210.5 215.5,210.5C 215.5,212.833 215.5,215.167 215.5,217.5C 211.5,217.5 207.5,217.5 203.5,217.5C 203.5,215.167 203.5,212.833 203.5,210.5C 199.167,210.5 194.833,210.5 190.5,210.5C 189.931,205.223 190.765,200.223 193,195.5C 195.913,192.627 199.413,191.294 203.5,191.5C 203.5,180.833 203.5,170.167 203.5,159.5 Z"/></g>
<g><path style="opacity:0.937" fill="#7c7d7c" d="M 377.5,159.5 C 381.5,159.5 385.5,159.5 389.5,159.5C 389.5,170.167 389.5,180.833 389.5,191.5C 400.926,192.63 405.259,198.963 402.5,210.5C 398.167,210.5 393.833,210.5 389.5,210.5C 389.5,212.833 389.5,215.167 389.5,217.5C 385.5,217.5 381.5,217.5 377.5,217.5C 377.5,215.167 377.5,212.833 377.5,210.5C 373.833,210.5 370.167,210.5 366.5,210.5C 364.436,200.589 368.103,194.255 377.5,191.5C 377.5,180.833 377.5,170.167 377.5,159.5 Z"/></g>
<g><path style="opacity:0.883" fill="#7c7d7c" d="M 499.5,168.5 C 500.496,168.414 501.329,168.748 502,169.5C 509.317,191.25 513.483,213.584 514.5,236.5C 511.833,236.5 509.167,236.5 506.5,236.5C 505.895,214.371 501.895,192.871 494.5,172C 495.921,170.377 497.588,169.21 499.5,168.5 Z"/></g>
<g><path style="opacity:0.889" fill="#7c7d7c" d="M 88.5,178.5 C 90.4817,178.995 92.4817,179.495 94.5,180C 95.0219,180.561 95.3552,181.228 95.5,182C 90.1754,199.781 87.1754,217.948 86.5,236.5C 84.1667,236.5 81.8333,236.5 79.5,236.5C 79.523,216.67 82.523,197.336 88.5,178.5 Z"/></g>
<g><path style="opacity:0.981" fill="#000000" d="M 203.5,217.5 C 207.5,217.5 211.5,217.5 215.5,217.5C 269.5,217.5 323.5,217.5 377.5,217.5C 381.5,217.5 385.5,217.5 389.5,217.5C 390.5,217.5 391.5,217.5 392.5,217.5C 392.5,222.833 392.5,228.167 392.5,233.5C 328.5,233.5 264.5,233.5 200.5,233.5C 200.5,228.167 200.5,222.833 200.5,217.5C 201.5,217.5 202.5,217.5 203.5,217.5 Z"/></g>
<g><path style="opacity:0.995" fill="#707070" d="M 200.5,233.5 C 264.5,233.5 328.5,233.5 392.5,233.5C 392.5,234.833 392.5,236.167 392.5,237.5C 328.5,237.5 264.5,237.5 200.5,237.5C 200.5,236.167 200.5,234.833 200.5,233.5 Z"/></g>
<g><path style="opacity:0.968" fill="#020201" d="M 200.5,237.5 C 264.5,237.5 328.5,237.5 392.5,237.5C 392.5,241.167 392.5,244.833 392.5,248.5C 387.489,248.334 382.489,248.501 377.5,249C 371.63,254.702 365.964,260.535 360.5,266.5C 347.135,278.864 334.468,291.864 322.5,305.5C 319.167,308.167 316.167,311.167 313.5,314.5C 309.514,316.951 307.014,320.284 306,324.5C 316.672,336.339 327.839,347.672 339.5,358.5C 339.953,359.458 340.619,360.292 341.5,361C 345.167,361.333 348.833,361.667 352.5,362C 359.416,365.457 361.083,370.457 357.5,377C 365.969,386.47 374.803,395.637 384,404.5C 382.529,408.319 379.862,411.319 376,413.5C 363.9,401.4 351.733,389.233 339.5,377C 310.833,376.333 282.167,376.333 253.5,377C 241.292,389.041 229.292,401.208 217.5,413.5C 213.32,411.496 210.487,408.496 209,404.5C 218.197,395.637 227.031,386.47 235.5,377C 231.917,370.457 233.584,365.457 240.5,362C 244.167,361.667 247.833,361.333 251.5,361C 252.381,360.292 253.047,359.458 253.5,358.5C 265.661,347.172 277.328,335.339 288.5,323C 285.297,319.629 281.964,316.462 278.5,313.5C 276.167,310.5 273.5,307.833 270.5,305.5C 258.483,291.817 245.816,278.817 232.5,266.5C 227.036,260.535 221.37,254.702 215.5,249C 210.511,248.501 205.511,248.334 200.5,248.5C 200.5,244.833 200.5,241.167 200.5,237.5 Z M 250.5,248.5 C 256.227,254.222 261.56,260.222 266.5,266.5C 261.167,266.5 255.833,266.5 250.5,266.5C 244.964,260.646 239.297,254.812 233.5,249C 239.157,248.501 244.824,248.334 250.5,248.5 Z M 267.5,248.5 C 286.167,248.5 304.833,248.5 323.5,248.5C 321.533,251.579 319.2,254.412 316.5,257C 302.833,257.667 289.167,257.667 275.5,257C 272.629,254.297 269.962,251.464 267.5,248.5 Z M 341.5,248.5 C 347.509,248.334 353.509,248.501 359.5,249C 354.329,255.003 348.996,260.837 343.5,266.5C 337.167,266.5 330.833,266.5 324.5,266.5C 330.167,260.5 335.833,254.5 341.5,248.5 Z M 307.5,266.5 C 299.833,266.5 292.167,266.5 284.5,266.5C 284.047,265.542 283.381,264.708 282.5,264C 291.5,263.333 300.5,263.333 309.5,264C 308.619,264.708 307.953,265.542 307.5,266.5 Z M 270.5,358.5 C 287.833,358.5 305.167,358.5 322.5,358.5C 322.953,359.458 323.619,360.292 324.5,361C 305.833,361.667 287.167,361.667 268.5,361C 269.381,360.292 270.047,359.458 270.5,358.5 Z"/></g>
<g><path style="opacity:0.963" fill="#7d7c7c" d="M 128.5,244.5 C 114.806,251.344 101.473,258.677 88.5,266.5C 87.8333,289.833 87.1667,313.167 86.5,336.5C 73.4829,336.832 60.4829,336.499 47.5,335.5C 54.3714,320.258 61.3714,305.091 68.5,290C 61.3714,274.909 54.3714,259.742 47.5,244.5C 74.6637,243.171 101.664,243.171 128.5,244.5 Z"/></g>
<g><path style="opacity:0.962" fill="#7d7c7c" d="M 464.5,244.5 C 491.336,243.171 518.336,243.171 545.5,244.5C 538.637,259.756 531.971,275.09 525.5,290.5C 531.889,305.613 538.556,320.613 545.5,335.5C 532.517,336.499 519.517,336.832 506.5,336.5C 505.833,313.167 505.167,289.833 504.5,266.5C 491.496,258.662 478.162,251.329 464.5,244.5 Z"/></g>
<g><path style="opacity:0.987" fill="#020202" d="M 128.5,244.5 C 128.5,251.833 128.5,259.167 128.5,266.5C 115.167,266.5 101.833,266.5 88.5,266.5C 101.473,258.677 114.806,251.344 128.5,244.5 Z"/></g>
<g><path style="opacity:0.975" fill="#010101" d="M 464.5,244.5 C 478.162,251.329 491.496,258.662 504.5,266.5C 491.167,266.5 477.833,266.5 464.5,266.5C 464.5,259.167 464.5,251.833 464.5,244.5 Z"/></g>
<g><path style="opacity:0.942" fill="#7d7d7c" d="M 250.5,248.5 C 256.167,248.5 261.833,248.5 267.5,248.5C 269.962,251.464 272.629,254.297 275.5,257C 289.167,257.667 302.833,257.667 316.5,257C 319.2,254.412 321.533,251.579 323.5,248.5C 329.5,248.5 335.5,248.5 341.5,248.5C 335.833,254.5 330.167,260.5 324.5,266.5C 317.442,272.556 311.109,279.222 305.5,286.5C 299.5,286.5 293.5,286.5 287.5,286.5C 281.111,279.109 274.111,272.443 266.5,266.5C 261.56,260.222 256.227,254.222 250.5,248.5 Z M 267.5,248.5 C 286.167,248.5 304.833,248.5 323.5,248.5C 321.533,251.579 319.2,254.412 316.5,257C 302.833,257.667 289.167,257.667 275.5,257C 272.629,254.297 269.962,251.464 267.5,248.5 Z M 307.5,266.5 C 299.833,266.5 292.167,266.5 284.5,266.5C 284.047,265.542 283.381,264.708 282.5,264C 291.5,263.333 300.5,263.333 309.5,264C 308.619,264.708 307.953,265.542 307.5,266.5 Z"/></g>
<g><path style="opacity:0.999" fill="#f8a11b" d="M 88.5,266.5 C 101.833,266.5 115.167,266.5 128.5,266.5C 163.167,266.5 197.833,266.5 232.5,266.5C 245.816,278.817 258.483,291.817 270.5,305.5C 253.815,323.851 236.482,341.518 218.5,358.5C 174.5,358.5 130.5,358.5 86.5,358.5C 86.5,351.167 86.5,343.833 86.5,336.5C 87.1667,313.167 87.8333,289.833 88.5,266.5 Z"/></g>
<g><path style="opacity:1" fill="#f49f1e" d="M 250.5,266.5 C 255.833,266.5 261.167,266.5 266.5,266.5C 274.111,272.443 281.111,279.109 287.5,286.5C 281.158,286.666 274.825,286.5 268.5,286C 261.904,279.91 255.904,273.41 250.5,266.5 Z"/></g>
<g><path style="opacity:1" fill="#f7a11e" d="M 284.5,266.5 C 292.167,266.5 299.833,266.5 307.5,266.5C 303.87,270.631 300.037,274.631 296,278.5C 291.963,274.631 288.13,270.631 284.5,266.5 Z"/></g>
<g><path style="opacity:1" fill="#f59f1e" d="M 324.5,266.5 C 330.833,266.5 337.167,266.5 343.5,266.5C 337.369,273.131 331.036,279.631 324.5,286C 318.175,286.5 311.842,286.666 305.5,286.5C 311.109,279.222 317.442,272.556 324.5,266.5 Z"/></g>
<g><path style="opacity:0.998" fill="#f8a11b" d="M 360.5,266.5 C 395.167,266.5 429.833,266.5 464.5,266.5C 477.833,266.5 491.167,266.5 504.5,266.5C 505.167,289.833 505.833,313.167 506.5,336.5C 506.5,343.833 506.5,351.167 506.5,358.5C 462.5,358.5 418.5,358.5 374.5,358.5C 356.545,341.544 339.212,323.878 322.5,305.5C 334.468,291.864 347.135,278.864 360.5,266.5 Z"/></g>
<g><path style="opacity:1" fill="#0d0905" d="M 192.5,296.5 C 192.5,298.167 192.5,299.833 192.5,301.5C 190.167,301.5 187.833,301.5 185.5,301.5C 186.329,296.499 184.329,294.332 179.5,295C 178.106,295.956 177.439,297.289 177.5,299C 178.665,305.488 182.165,310.322 188,313.5C 193.834,319.843 194.834,326.843 191,334.5C 184.313,341.05 177.646,341.05 171,334.5C 169.991,332.975 169.491,331.308 169.5,329.5C 169.5,327.5 169.5,325.5 169.5,323.5C 171.833,323.5 174.167,323.5 176.5,323.5C 176.232,325.099 176.566,326.432 177.5,327.5C 178.323,331.919 180.49,332.586 184,329.5C 184.667,327.5 184.667,325.5 184,323.5C 178.631,318.121 173.964,312.121 170,305.5C 167.044,291.544 172.544,285.711 186.5,288C 190.276,289.605 192.276,292.438 192.5,296.5 Z"/></g>
<g><path style="opacity:1" fill="#40311f" d="M 219.5,288.5 C 211.5,288.5 203.5,288.5 195.5,288.5C 195.5,290.5 195.5,292.5 195.5,294.5C 198.385,294.194 201.052,294.527 203.5,295.5C 200.5,295.5 197.5,295.5 194.5,295.5C 194.5,292.833 194.5,290.167 194.5,287.5C 203.017,287.174 211.35,287.507 219.5,288.5 Z"/></g>
<g><path style="opacity:1" fill="#0e0a05" d="M 464.5,327.5 C 464.5,326.167 464.5,324.833 464.5,323.5C 466.833,323.5 469.167,323.5 471.5,323.5C 471.232,325.099 471.566,326.432 472.5,327.5C 473.128,330.955 475.128,332.122 478.5,331C 479.61,328.263 479.777,325.429 479,322.5C 473.956,317.124 469.289,311.458 465,305.5C 462.523,291.892 468.023,286.058 481.5,288C 486.947,290.818 489.281,295.318 488.5,301.5C 485.833,301.5 483.167,301.5 480.5,301.5C 480.862,294.996 478.362,293.329 473,296.5C 472.416,299.257 472.75,301.923 474,304.5C 479.8,309.294 484.467,314.96 488,321.5C 489.815,333.679 484.649,339.512 472.5,339C 466.856,337.196 464.189,333.362 464.5,327.5 Z"/></g>
<g><path style="opacity:1" fill="#090604" d="M 114.5,287.5 C 120.176,287.334 125.843,287.501 131.5,288C 136.788,290.402 139.122,294.568 138.5,300.5C 139.126,304.908 137.793,308.574 134.5,311.5C 138.497,314.67 140.164,318.837 139.5,324C 140.182,329.296 138.515,333.629 134.5,337C 127.95,338.42 121.284,338.92 114.5,338.5C 114.5,321.5 114.5,304.5 114.5,287.5 Z"/></g>
<g><path style="opacity:1" fill="#382c1e" d="M 165.5,288.5 C 158.5,288.5 151.5,288.5 144.5,288.5C 144.5,305.167 144.5,321.833 144.5,338.5C 143.503,321.675 143.17,304.675 143.5,287.5C 151.019,287.175 158.352,287.508 165.5,288.5 Z"/></g>
<g><path style="opacity:1" fill="#010100" d="M 165.5,288.5 C 165.5,290.833 165.5,293.167 165.5,295.5C 161.167,295.5 156.833,295.5 152.5,295.5C 151.514,299.97 151.181,304.637 151.5,309.5C 155.167,309.5 158.833,309.5 162.5,309.5C 162.5,311.833 162.5,314.167 162.5,316.5C 159.167,316.5 155.833,316.5 152.5,316.5C 151.513,321.305 151.179,326.305 151.5,331.5C 156.167,331.5 160.833,331.5 165.5,331.5C 165.5,333.833 165.5,336.167 165.5,338.5C 158.5,338.5 151.5,338.5 144.5,338.5C 144.5,321.833 144.5,305.167 144.5,288.5C 151.5,288.5 158.5,288.5 165.5,288.5 Z"/></g>
<g><path style="opacity:1" fill="#010100" d="M 219.5,288.5 C 219.5,290.833 219.5,293.167 219.5,295.5C 216.833,295.5 214.167,295.5 211.5,295.5C 211.5,309.833 211.5,324.167 211.5,338.5C 208.833,338.5 206.167,338.5 203.5,338.5C 203.5,324.167 203.5,309.833 203.5,295.5C 201.052,294.527 198.385,294.194 195.5,294.5C 195.5,292.5 195.5,290.5 195.5,288.5C 203.5,288.5 211.5,288.5 219.5,288.5 Z"/></g>
<g><path style="opacity:1" fill="#050302" d="M 372.5,295.5 C 371.513,300.305 371.179,305.305 371.5,310.5C 374.833,310.5 378.167,310.5 381.5,310.5C 381.5,312.833 381.5,315.167 381.5,317.5C 378.167,317.5 374.833,317.5 371.5,317.5C 371.5,324.5 371.5,331.5 371.5,338.5C 368.833,338.5 366.167,338.5 363.5,338.5C 363.5,321.5 363.5,304.5 363.5,287.5C 370.5,287.5 377.5,287.5 384.5,287.5C 384.5,290.167 384.5,292.833 384.5,295.5C 380.5,295.5 376.5,295.5 372.5,295.5 Z"/></g>
<g><path style="opacity:1" fill="#010100" d="M 388.5,287.5 C 391.167,287.5 393.833,287.5 396.5,287.5C 396.5,304.5 396.5,321.5 396.5,338.5C 393.833,338.5 391.167,338.5 388.5,338.5C 388.5,321.5 388.5,304.5 388.5,287.5 Z"/></g>
<g><path style="opacity:1" fill="#010100" d="M 423.5,331.5 C 423.5,333.833 423.5,336.167 423.5,338.5C 416.5,338.5 409.5,338.5 402.5,338.5C 402.5,321.833 402.5,305.167 402.5,288.5C 404.833,288.5 407.167,288.5 409.5,288.5C 409.5,302.833 409.5,317.167 409.5,331.5C 414.167,331.5 418.833,331.5 423.5,331.5 Z"/></g>
<g><path style="opacity:1" fill="#4c3922" d="M 423.5,331.5 C 418.833,331.5 414.167,331.5 409.5,331.5C 409.5,317.167 409.5,302.833 409.5,288.5C 407.167,288.5 404.833,288.5 402.5,288.5C 402.5,305.167 402.5,321.833 402.5,338.5C 401.503,321.675 401.17,304.675 401.5,287.5C 404.5,287.5 407.5,287.5 410.5,287.5C 410.5,301.833 410.5,316.167 410.5,330.5C 415.032,330.182 419.366,330.515 423.5,331.5 Z"/></g>
<g><path style="opacity:1" fill="#080503" d="M 448.5,288.5 C 452.167,288.5 455.833,288.5 459.5,288.5C 459.5,305.167 459.5,321.833 459.5,338.5C 457.167,338.5 454.833,338.5 452.5,338.5C 452.667,327.495 452.5,316.495 452,305.5C 451.047,308.432 450.547,311.432 450.5,314.5C 449.127,322.448 448.127,330.448 447.5,338.5C 444.5,338.5 441.5,338.5 438.5,338.5C 438.152,330.416 437.152,322.416 435.5,314.5C 434.895,311.873 434.395,309.207 434,306.5C 433.5,317.161 433.333,327.828 433.5,338.5C 431.167,338.5 428.833,338.5 426.5,338.5C 426.5,321.5 426.5,304.5 426.5,287.5C 430.437,287.207 434.27,287.54 438,288.5C 439.991,298.781 441.658,309.115 443,319.5C 445.43,309.338 447.263,299.004 448.5,288.5 Z"/></g>
<g><path style="opacity:1" fill="#624827" d="M 448.5,288.5 C 452.298,287.517 456.298,287.183 460.5,287.5C 460.83,304.675 460.497,321.675 459.5,338.5C 459.5,321.833 459.5,305.167 459.5,288.5C 455.833,288.5 452.167,288.5 448.5,288.5 Z"/></g>
<g><path style="opacity:1" fill="#f6a020" d="M 283.5,291.5 C 282.167,293.167 280.833,294.833 279.5,296.5C 273.078,291.77 274.411,290.103 283.5,291.5 Z"/></g>
<g><path style="opacity:1" fill="#7c7b79" d="M 283.5,291.5 C 291.833,291.5 300.167,291.5 308.5,291.5C 309.911,293.914 311.911,295.581 314.5,296.5C 311.833,299.833 308.833,302.833 305.5,305.5C 302.538,302.036 299.371,298.703 296,295.5C 292.558,298.432 289.725,301.765 287.5,305.5C 284.119,303.12 281.453,300.12 279.5,296.5C 280.833,294.833 282.167,293.167 283.5,291.5 Z"/></g>
<g><path style="opacity:1" fill="#ee9d27" d="M 308.5,291.5 C 311.85,291.335 315.183,291.502 318.5,292C 316.93,293.397 315.596,294.897 314.5,296.5C 311.911,295.581 309.911,293.914 308.5,291.5 Z"/></g>
<g><path style="opacity:1" fill="#a4702b" d="M 123.5,295.5 C 123.5,299.5 123.5,303.5 123.5,307.5C 124.833,307.5 126.167,307.5 127.5,307.5C 126.081,308.451 124.415,308.784 122.5,308.5C 122.182,303.968 122.515,299.634 123.5,295.5 Z"/></g>
<g><path style="opacity:1" fill="#ef9b1e" d="M 123.5,295.5 C 126.044,295.104 128.211,295.771 130,297.5C 130.667,300.167 130.667,302.833 130,305.5C 129.583,306.756 128.75,307.423 127.5,307.5C 126.167,307.5 124.833,307.5 123.5,307.5C 123.5,303.5 123.5,299.5 123.5,295.5 Z"/></g>
<g><path style="opacity:1" fill="#f29d1f" d="M 305.5,305.5 C 302.854,308.812 299.854,311.812 296.5,314.5C 293.146,311.812 290.146,308.812 287.5,305.5C 289.725,301.765 292.558,298.432 296,295.5C 299.371,298.703 302.538,302.036 305.5,305.5 Z"/></g>
<g><path style="opacity:1" fill="#9d6c2a" d="M 192.5,296.5 C 193.461,298.265 193.795,300.265 193.5,302.5C 190.615,302.806 187.948,302.473 185.5,301.5C 187.833,301.5 190.167,301.5 192.5,301.5C 192.5,299.833 192.5,298.167 192.5,296.5 Z"/></g>
<g><path style="opacity:0.968" fill="#7e7d7c" d="M 270.5,305.5 C 273.5,307.833 276.167,310.5 278.5,313.5C 264.478,328.52 250.478,343.52 236.5,358.5C 230.519,365.314 224.019,371.647 217,377.5C 213.7,375.367 210.866,372.701 208.5,369.5C 211.855,365.813 215.189,362.147 218.5,358.5C 236.482,341.518 253.815,323.851 270.5,305.5 Z"/></g>
<g><path style="opacity:0.969" fill="#7e7d7b" d="M 322.5,305.5 C 339.212,323.878 356.545,341.544 374.5,358.5C 377.811,362.147 381.145,365.813 384.5,369.5C 382.134,372.701 379.3,375.367 376,377.5C 368.981,371.647 362.481,365.314 356.5,358.5C 344.872,345.703 333.038,333.036 321,320.5C 318.894,317.882 316.394,315.882 313.5,314.5C 316.167,311.167 319.167,308.167 322.5,305.5 Z"/></g>
<g><path style="opacity:1" fill="#9e6d2a" d="M 452.5,338.5 C 451.833,330.5 451.167,322.5 450.5,314.5C 450.547,311.432 451.047,308.432 452,305.5C 452.5,316.495 452.667,327.495 452.5,338.5 Z"/></g>
<g><path style="opacity:1" fill="#735329" d="M 152.5,295.5 C 152.5,299.833 152.5,304.167 152.5,308.5C 156.167,308.5 159.833,308.5 163.5,308.5C 163.806,311.385 163.473,314.052 162.5,316.5C 162.5,314.167 162.5,311.833 162.5,309.5C 158.833,309.5 155.167,309.5 151.5,309.5C 151.181,304.637 151.514,299.97 152.5,295.5 Z"/></g>
<g><path style="opacity:1" fill="#a6712b" d="M 435.5,314.5 C 434.833,322.5 434.167,330.5 433.5,338.5C 433.333,327.828 433.5,317.161 434,306.5C 434.395,309.207 434.895,311.873 435.5,314.5 Z"/></g>
<g><path style="opacity:1" fill="#f59f1e" d="M 278.5,313.5 C 281.964,316.462 285.297,319.629 288.5,323C 277.328,335.339 265.661,347.172 253.5,358.5C 247.833,358.5 242.167,358.5 236.5,358.5C 250.478,343.52 264.478,328.52 278.5,313.5 Z"/></g>
<g><path style="opacity:1" fill="#f59f1e" d="M 313.5,314.5 C 316.394,315.882 318.894,317.882 321,320.5C 333.038,333.036 344.872,345.703 356.5,358.5C 350.833,358.5 345.167,358.5 339.5,358.5C 327.839,347.672 316.672,336.339 306,324.5C 307.014,320.284 309.514,316.951 313.5,314.5 Z"/></g>
<g><path style="opacity:1" fill="#97682a" d="M 128.5,316.5 C 126.833,316.5 125.167,316.5 123.5,316.5C 123.5,321.167 123.5,325.833 123.5,330.5C 125.167,330.5 126.833,330.5 128.5,330.5C 126.735,331.461 124.735,331.795 122.5,331.5C 122.5,326.167 122.5,320.833 122.5,315.5C 124.735,315.205 126.735,315.539 128.5,316.5 Z"/></g>
<g><path style="opacity:1" fill="#f9a11b" d="M 128.5,316.5 C 129.117,316.611 129.617,316.944 130,317.5C 130.667,321.5 130.667,325.5 130,329.5C 129.617,330.056 129.117,330.389 128.5,330.5C 126.833,330.5 125.167,330.5 123.5,330.5C 123.5,325.833 123.5,321.167 123.5,316.5C 125.167,316.5 126.833,316.5 128.5,316.5 Z"/></g>
<g><path style="opacity:1" fill="#9f6d2a" d="M 372.5,295.5 C 372.5,300.167 372.5,304.833 372.5,309.5C 375.833,309.5 379.167,309.5 382.5,309.5C 382.5,312.5 382.5,315.5 382.5,318.5C 379.167,318.5 375.833,318.5 372.5,318.5C 372.824,325.354 372.491,332.021 371.5,338.5C 371.5,331.5 371.5,324.5 371.5,317.5C 374.833,317.5 378.167,317.5 381.5,317.5C 381.5,315.167 381.5,312.833 381.5,310.5C 378.167,310.5 374.833,310.5 371.5,310.5C 371.179,305.305 371.513,300.305 372.5,295.5 Z"/></g>
<g><path style="opacity:1" fill="#7e592a" d="M 177.5,327.5 C 176.566,326.432 176.232,325.099 176.5,323.5C 174.167,323.5 171.833,323.5 169.5,323.5C 169.5,325.5 169.5,327.5 169.5,329.5C 168.532,327.393 168.198,325.059 168.5,322.5C 171.5,322.5 174.5,322.5 177.5,322.5C 177.5,324.167 177.5,325.833 177.5,327.5 Z"/></g>
<g><path style="opacity:1" fill="#7c5829" d="M 472.5,327.5 C 471.566,326.432 471.232,325.099 471.5,323.5C 469.167,323.5 466.833,323.5 464.5,323.5C 464.5,324.833 464.5,326.167 464.5,327.5C 463.549,326.081 463.216,324.415 463.5,322.5C 466.5,322.5 469.5,322.5 472.5,322.5C 472.5,324.167 472.5,325.833 472.5,327.5 Z"/></g>
<g><path style="opacity:1" fill="#735329" d="M 152.5,316.5 C 152.5,321.167 152.5,325.833 152.5,330.5C 157.167,330.5 161.833,330.5 166.5,330.5C 166.806,333.385 166.473,336.052 165.5,338.5C 165.5,336.167 165.5,333.833 165.5,331.5C 160.833,331.5 156.167,331.5 151.5,331.5C 151.179,326.305 151.513,321.305 152.5,316.5 Z"/></g>
<g><path style="opacity:1" fill="#f6a01c" d="M 322.5,358.5 C 305.167,358.5 287.833,358.5 270.5,358.5C 278.812,349.521 287.479,340.854 296.5,332.5C 305.521,340.854 314.188,349.521 322.5,358.5 Z"/></g>
</svg>
